<svg width="37" height="44" viewBox="0 0 37 44" fill="none" xmlns="http://www.w3.org/2000/svg">
<path d="M34.5 18C34.5 24.1961 30.4685 30.2085 26.0481 34.8745C23.8788 37.1643 21.7027 39.0389 20.0666 40.3417C19.4578 40.8265 18.926 41.2304 18.5 41.5452C18.074 41.2304 17.5422 40.8265 16.9334 40.3417C15.2973 39.0389 13.1212 37.1643 10.9519 34.8745C6.53147 30.2085 2.5 24.1961 2.5 18C2.5 13.7565 4.18571 9.68687 7.18629 6.68629C10.1869 3.68571 14.2565 2 18.5 2C22.7435 2 26.8131 3.68571 29.8137 6.68629C32.8143 9.68687 34.5 13.7565 34.5 18ZM18.5 26C22.9183 26 26.5 22.4183 26.5 18C26.5 13.5817 22.9183 10 18.5 10C14.0817 10 10.5 13.5817 10.5 18C10.5 22.4183 14.0817 26 18.5 26Z" fill="black" stroke="black" stroke-width="4" stroke-linecap="round" stroke-linejoin="round"/>
</svg>
